<?xml version="1.0"?>
<svg width="60.875" height="64.875" xmlns="http://www.w3.org/2000/svg">
 <g>
  <title>Layer 1</title>
  <g>
   <path d="m48.007999,51.402c-1.499001,0 -1.617001,1.318001 -1.617001,1.957001c0,0.729 0.162003,1.946999 1.617001,1.946999c1.549,0 1.657001,-1.230999 1.672001,-1.946999c-0.014999,-0.638 -0.123001,-1.957001 -1.672001,-1.957001z" fill="#000000"/>
   <polygon points="20.036,51.436 18.985,53.665 21.053,53.665 20.056,51.436  " fill="#000000"/>
   <path d="m27.617001,40.729c3.642,-0.280998 6.645,-2.806 6.481998,-6.202999c-0.049999,-0.844002 -0.094997,-1.269001 -0.405998,-2.042c-3.17,0.889 -5.854,2.302998 -7.799002,3.558998c0,0 0.244001,3.539001 4.277,2.878002c0,0 -3.952999,2.014999 -6.768999,-1.106003c-0.299,0.229 -0.98,0.836002 -0.98,0.836002l-0.026001,0.014c1.134001,1.181 2.687,2.259998 5.221001,2.063999z" fill="#000000"/>
   <path d="m29.898001,0c-16.512001,0 -29.898001,11.707 -29.898001,26.153999v34.178001h59.798l0.002998,-34.178001c0,-14.447 -13.389,-26.153999 -29.902998,-26.153999zm-0.064001,4.968c11.349998,0 20.882999,6.887 23.499001,16.184c-3.920002,-0.488001 -5.479,-2.035 -5.479,-2.035c-5.170002,-5.440001 -8.952999,-9.89 -13.804001,-11.136001c-1.808998,-0.465 -3.869999,-0.418 -5.809,-0.107c-0.691,-0.874 -2.056999,-2.128 -3.939999,-2.345c1.778,-0.369 3.621,-0.561 5.532999,-0.561zm-8.525999,1.607c0,0 -0.224001,0.115 -0.508001,0.358c-0.004999,0.006 -0.011,0.012 -0.018,0.018c-0.147999,0.127 -0.284,0.27 -0.406,0.421c-0.014,0.017 -0.028999,0.032 -0.042,0.049c-0.119999,0.156 -0.229,0.323 -0.322001,0.498c-0.007,0.013 -0.014999,0.027 -0.021999,0.041c-0.094999,0.186 -0.174,0.38 -0.237,0.584c-0.058001,0.160001 -0.087,0.348001 -0.112,0.537001c-0.01,0.078 -0.022001,0.155 -0.029001,0.236c-0.042999,0.733 0.129,1.617 0.486,2.478c0.032,-0.022 0.068001,-0.041 0.1,-0.064c1.285999,-0.919 2.693001,-1.654 4.41,-2.276c0.042,-0.015 0.09,-0.029 0.135,-0.045c0.458,-0.163 0.940001,-0.318 1.445999,-0.467c0.082001,-0.024 0.152,-0.052 0.234001,-0.075l-0.01,0.008c0.006001,-0.002001 0.01,-0.003 0.017,-0.005l-0.107,0.073999l-0.046,0.035c-1.476,0.562 -2.743,1.166 -3.822001,1.821c-0.639999,0.393001 -1.212999,0.807 -1.731001,1.248c0,0 -0.313999,0.25 -0.389999,0.333c-3.5,3.262 -3.725,7.691999 -2.281,14.160999c0.015001,0.068001 0.029001,0.136002 0.046001,0.204c0.089998,0.401001 0.185999,0.808001 0.289,1.224001c0.018,0.073999 0.039999,0.167999 0.062,0.271c0.17,0.75 0.271,1.410999 0.351,1.928999c0.007,0.033001 0.012999,0.067001 0.018,0.099001c0.028999,0.156 0.226,1.209999 0.343,2.331001c-0.295,0.264999 -0.574001,0.537998 -0.832001,0.810997c-0.006001,0.006001 -0.01,0.012001 -0.017,0.018002c-1.261999,1.341999 -2.076,2.718998 -2.455999,3.431999c-0.165,0.310001 -0.249001,0.496002 -0.249001,0.496002c0.755001,-1.924004 -0.073,-5.541002 -0.073,-5.541002c-0.535,-3.390999 -3.375999,-12.875 3.264,-18.955c-0.480999,-1.695999 -0.240999,-2.702999 0.139999,-3.799999c0.42,-0.997001 1.414001,-2.09 2.369001,-2.487zm-1.392,0.221c-3.003,2.21 -1.979,6.008 -1.979,6.008c-7.338,6.264001 -4.085,17.96 -3.978001,19.531999c0,0 0.516001,2.844002 -0.054999,4.827c-0.567,1.976002 -2.2,4.290001 -2.2,4.290001c-1.251,1.808002 -1.821,3.416 -1.613001,4.639999h-4.568l-0.008,-19.766998c0,-8.715 5.905,-16.214 14.401,-19.53zm-7.298,49.986001h-4.06v-5.171001h-2.392l-0.882,-1.640999h10.746001l-0.879001,1.640999h-2.533v5.171001l0,0zm9.705999,0.000999l-0.650999,-1.477001h-3.321001l-0.650999,1.477001h-3.901l3.648,-6.812h5.219l3.648001,6.812h-3.991001l0,0zm6.753,0.288998c-1.112,0 -2.013,-0.903 -2.013,-2.015999c0,-1.111 0.901001,-2.014 2.013,-2.014c1.113001,0 2.016001,0.902 2.016001,2.014c0,1.112999 -0.903,2.015999 -2.016001,2.015999zm10.043999,-1.98c0.742001,0 1.802002,-0.129997 2.574001,-0.323997v1.82c-0.746998,0.149998 -2.257999,0.313999 -3.291,0.313999c-3.582001,0 -6.329998,-0.681999 -6.329998,-3.626999c0,-2.631001 2.938,-3.459 6.329998,-3.459c1.473,0 2.838001,0.130997 3.521,0.251999l-0.807999,1.585999c-0.435001,-0.084 -1.308002,-0.139 -1.991001,-0.139c-1.737999,0 -2.902,0.471001 -2.902,1.760002c0.003002,1.473 1.215,1.816998 2.896999,1.816998zm8.887001,1.810001c-3.690998,0 -5.859001,-1.202999 -5.859001,-3.527c0,-2.282001 2.168003,-3.52 5.859001,-3.52c3.700001,0 5.917,1.237 5.917,3.52c-0.000999,2.324001 -2.216999,3.527 -5.917,3.527zm5.915001,-10.84l-20.130001,0.004002c1.465,-0.582001 2.924999,-1.230003 4.382999,-1.978001c3.256001,-1.665001 10.688,-6.403 15.75,-11.592003l-0.002998,13.566002zm-15.816002,-4.150002c-12.586998,6.052002 -23.337998,7.611 -25.129998,3.871002c-0.593,-1.233002 -0.049,-3.193001 1.319,-5.403999c0.459,-0.743 1.007999,-1.511002 1.646,-2.293003c0,-0.000999 0.000999,-0.002998 0.002999,-0.003998c0.299,-0.368 0.618999,-0.737 0.954,-1.105c0.098,-0.109001 0.202999,-0.217003 0.303999,-0.326c0.246,-0.262001 0.495001,-0.524002 0.755001,-0.785999c0.143,-0.144001 0.291,-0.284 0.438,-0.427002c0.231001,-0.224998 0.468,-0.445999 0.711,-0.667999c0.177999,-0.164001 0.355999,-0.324001 0.541,-0.485001c0.219999,-0.193001 0.446999,-0.383999 0.675999,-0.575001c0.216002,-0.18 0.429001,-0.358997 0.651001,-0.535999c0.192999,-0.153 0.393,-0.303001 0.588999,-0.453999c0.269001,-0.205002 0.535002,-0.411003 0.813002,-0.611c0.057999,-0.042 0.118999,-0.081001 0.175999,-0.123001c0.389,-0.278 0.779001,-0.555 1.183001,-0.82c0,0 9.988998,-7.293001 22.721001,-9.1l-0.015999,0.014c0.003998,-0.000999 0.007,-0.000999 0.009998,-0.000999l-0.09,0.073999c0,0 -12.292999,2.532 -22.15,11.098c-0.656,0.57 -1.302,1.167 -1.931,1.792c-0.553001,0.546001 -1.058001,1.093002 -1.516001,1.636002c-0.035999,0.042 -0.075001,0.084 -0.108999,0.125c-2.101,2.522999 -3.114,4.912998 -2.385,6.419998c1.543999,3.227001 10.48,1.997002 19.437,-2.307999c5.592999,-2.689999 10.41,-6.223999 12.846001,-9.27c1.455997,-1.83 2.052998,-3.483 1.438999,-4.674c-1.73,-3.363001 -10.596001,-2.094999 -19.415001,2.362999l-0.296001,0.099001c0.006001,-0.004 0.015003,-0.009001 0.023003,-0.014999l-0.019001,0.005999c3.923,-2.474998 10.75,-5.851 17.750999,-6.872999c0.150002,-0.021999 0.490002,-0.061001 0.912003,-0.091c0.056,-0.004 0.114998,-0.008001 0.175999,-0.012001c0.027,-0.000999 0.056999,-0.003 0.084999,-0.004999c0.372002,-0.024 0.806,-0.038 1.271999,-0.030001c1.810001,0.031 4.069,0.412001 4.754002,2.023001c1.621998,3.816 -6.540001,11.419998 -19.128002,17.474998zm-5.059998,-11.088999c5.507999,-2.66 10.73,-4.136 13.947998,-4.136c1.627003,0 2.739002,0.375999 3.124001,1.17c0.072002,0.152 0.115002,0.316999 0.132999,0.492001c0.271,2.525999 -5.306999,7.291998 -13.077999,11.039999c-8.291,3.995998 -15.935999,5.318001 -17.073,2.959c-0.142,-0.297001 -0.174999,-0.638 -0.108,-1.014999c0.441999,-2.620998 5.792,-7.009998 13.054001,-10.51z" fill="#000000"/>
  </g>
 </g>
</svg>