<?xml version="1.0" encoding="utf-8"?>
<!-- Generator: Adobe Illustrator 16.0.4, SVG Export Plug-In . SVG Version: 6.00 Build 0)  -->
<!DOCTYPE svg PUBLIC "-//W3C//DTD SVG 1.1//EN" "http://www.w3.org/Graphics/SVG/1.1/DTD/svg11.dtd">
<svg version="1.1" id="Layer_1" xmlns="http://www.w3.org/2000/svg" xmlns:xlink="http://www.w3.org/1999/xlink" x="0px" y="0px"
	 width="60.875px" height="64.875px" viewBox="0 0 60.875 64.875" enable-background="new 0 0 60.875 64.875" xml:space="preserve">
<g>
	<path fill="#FFFFFF" d="M48.008,51.402c-1.499,0-1.617,1.318-1.617,1.957c0,0.729,0.162,1.947,1.617,1.947
		c1.549,0,1.657-1.231,1.672-1.947C49.665,52.721,49.557,51.402,48.008,51.402z"/>
	<polygon fill="#FFFFFF" points="20.036,51.436 18.985,53.665 21.053,53.665 20.056,51.436 	"/>
	<path fill="#FFFFFF" d="M27.617,40.729c3.642-0.281,6.645-2.806,6.482-6.203c-0.05-0.844-0.095-1.269-0.406-2.042
		c-3.17,0.889-5.854,2.303-7.799,3.559c0,0,0.244,3.539,4.277,2.878c0,0-3.953,2.015-6.769-1.106
		c-0.299,0.229-0.98,0.836-0.98,0.836l-0.026,0.014C23.53,39.846,25.083,40.925,27.617,40.729z"/>
	<path fill="#FFFFFF" d="M29.898,0C13.386,0,0,11.707,0,26.154v34.178h59.798l0.003-34.178C59.801,11.707,46.412,0,29.898,0z
		 M29.834,4.968c11.35,0,20.883,6.887,23.499,16.184c-3.92-0.488-5.479-2.035-5.479-2.035c-5.17-5.44-8.953-9.89-13.804-11.136
		c-1.809-0.465-3.87-0.418-5.809-0.107C27.55,7,26.184,5.746,24.301,5.529C26.079,5.16,27.922,4.968,29.834,4.968z M21.308,6.575
		c0,0-0.224,0.115-0.508,0.358c-0.005,0.006-0.011,0.012-0.018,0.018c-0.148,0.127-0.284,0.27-0.406,0.421
		c-0.014,0.017-0.029,0.032-0.042,0.049c-0.12,0.156-0.229,0.323-0.322,0.498c-0.007,0.013-0.015,0.027-0.022,0.041
		c-0.095,0.186-0.174,0.38-0.237,0.584c-0.058,0.16-0.087,0.348-0.112,0.537c-0.01,0.078-0.022,0.155-0.029,0.236
		c-0.043,0.733,0.129,1.617,0.486,2.478c0.032-0.022,0.068-0.041,0.1-0.064c1.286-0.919,2.693-1.654,4.41-2.276
		c0.042-0.015,0.09-0.029,0.135-0.045c0.458-0.163,0.94-0.318,1.446-0.467c0.082-0.024,0.152-0.052,0.234-0.075l-0.01,0.008
		c0.006-0.002,0.01-0.003,0.017-0.005l-0.107,0.074L26.277,8.98c-1.476,0.562-2.743,1.166-3.822,1.821
		c-0.64,0.393-1.213,0.807-1.731,1.248c0,0-0.314,0.25-0.39,0.333c-3.5,3.262-3.725,7.692-2.281,14.161
		c0.015,0.068,0.029,0.136,0.046,0.204c0.09,0.401,0.186,0.808,0.289,1.224c0.018,0.074,0.04,0.168,0.062,0.271
		c0.17,0.75,0.271,1.411,0.351,1.929c0.007,0.033,0.013,0.067,0.018,0.099c0.029,0.156,0.226,1.21,0.343,2.331
		c-0.295,0.265-0.574,0.538-0.832,0.811c-0.006,0.006-0.01,0.012-0.017,0.018c-1.262,1.342-2.076,2.719-2.456,3.432
		c-0.165,0.31-0.249,0.496-0.249,0.496c0.755-1.924-0.073-5.541-0.073-5.541C15,28.426,12.159,18.942,18.799,12.862
		c-0.481-1.696-0.241-2.703,0.14-3.8C19.359,8.065,20.353,6.972,21.308,6.575z M19.916,6.796c-3.003,2.21-1.979,6.008-1.979,6.008
		c-7.338,6.264-4.085,17.96-3.978,19.532c0,0,0.516,2.844-0.055,4.827c-0.567,1.976-2.2,4.29-2.2,4.29
		c-1.251,1.808-1.821,3.416-1.613,4.64H5.523L5.515,26.326C5.515,17.611,11.42,10.112,19.916,6.796z M12.618,56.782h-4.06v-5.171
		H6.166l-0.882-1.641H16.03l-0.879,1.641h-2.533V56.782z M22.324,56.783l-0.651-1.477h-3.321l-0.651,1.477H13.8l3.648-6.812h5.219
		l3.648,6.812H22.324z M29.077,57.072c-1.112,0-2.013-0.903-2.013-2.016c0-1.111,0.901-2.014,2.013-2.014
		c1.113,0,2.016,0.902,2.016,2.014C31.093,56.169,30.19,57.072,29.077,57.072z M39.121,55.092c0.742,0,1.802-0.13,2.574-0.324v1.82
		c-0.747,0.15-2.258,0.314-3.291,0.314c-3.582,0-6.33-0.682-6.33-3.627c0-2.631,2.938-3.459,6.33-3.459
		c1.473,0,2.838,0.131,3.521,0.252l-0.808,1.586c-0.435-0.084-1.308-0.139-1.991-0.139c-1.738,0-2.902,0.471-2.902,1.76
		C36.227,54.748,37.439,55.092,39.121,55.092z M48.008,56.902c-3.691,0-5.859-1.203-5.859-3.527c0-2.282,2.168-3.52,5.859-3.52
		c3.7,0,5.917,1.237,5.917,3.52C53.924,55.699,51.708,56.902,48.008,56.902z M53.923,46.062l-20.13,0.004
		c1.465-0.582,2.925-1.23,4.383-1.978c3.256-1.665,10.688-6.403,15.75-11.592L53.923,46.062z M38.107,41.912
		c-12.587,6.052-23.338,7.611-25.13,3.871c-0.593-1.233-0.049-3.193,1.319-5.404c0.459-0.743,1.008-1.511,1.646-2.293
		c0-0.001,0.001-0.003,0.003-0.004c0.299-0.368,0.619-0.737,0.954-1.105c0.098-0.109,0.203-0.217,0.304-0.326
		c0.246-0.262,0.495-0.524,0.755-0.786c0.143-0.144,0.291-0.284,0.438-0.427c0.231-0.225,0.468-0.446,0.711-0.668
		c0.178-0.164,0.356-0.324,0.541-0.485c0.22-0.193,0.447-0.384,0.676-0.575c0.216-0.18,0.429-0.359,0.651-0.536
		c0.193-0.153,0.393-0.303,0.589-0.454c0.269-0.205,0.535-0.411,0.813-0.611c0.058-0.042,0.119-0.081,0.176-0.123
		c0.389-0.278,0.779-0.555,1.183-0.82c0,0,9.989-7.293,22.721-9.1l-0.016,0.014c0.004-0.001,0.007-0.001,0.01-0.001l-0.09,0.074
		c0,0-12.293,2.532-22.15,11.098c-0.656,0.57-1.302,1.167-1.931,1.792c-0.553,0.546-1.058,1.093-1.516,1.636
		c-0.036,0.042-0.075,0.084-0.109,0.125c-2.101,2.523-3.114,4.913-2.385,6.42c1.544,3.227,10.48,1.997,19.437-2.308
		c5.593-2.69,10.41-6.224,12.846-9.27c1.456-1.83,2.053-3.483,1.439-4.674c-1.73-3.363-10.596-2.095-19.415,2.363l-0.296,0.099
		c0.006-0.004,0.015-0.009,0.023-0.015l-0.019,0.006c3.923-2.475,10.75-5.851,17.751-6.873c0.15-0.022,0.49-0.061,0.912-0.091
		c0.056-0.004,0.115-0.008,0.176-0.012c0.027-0.001,0.057-0.003,0.085-0.005c0.372-0.024,0.806-0.038,1.272-0.03
		c1.81,0.031,4.069,0.412,4.754,2.023C58.857,28.253,50.695,35.857,38.107,41.912z M33.047,30.823
		c5.508-2.66,10.73-4.136,13.948-4.136c1.627,0,2.739,0.376,3.124,1.17c0.072,0.152,0.115,0.317,0.133,0.492
		c0.271,2.526-5.307,7.292-13.078,11.04c-8.291,3.996-15.936,5.318-17.073,2.959c-0.142-0.297-0.175-0.638-0.108-1.015
		C20.435,38.712,25.785,34.323,33.047,30.823z"/>
</g>
</svg>
